<svg width="28" height="28" viewBox="0 0 28 28" fill="none" xmlns="http://www.w3.org/2000/svg">
<path d="M0 14.7675C0 14.2589 0 13.7511 0 13.2425C0.0427131 13.0683 0.10745 12.8968 0.124135 12.7206C0.683409 6.84156 5.06484 1.99496 10.8805 0.833028C11.4985 0.709561 12.1218 0.61012 12.7425 0.5C13.2511 0.5 13.7589 0.5 14.2675 0.5C14.73 0.578085 15.1905 0.664846 15.6543 0.73292C22.9529 1.80408 28.1292 8.97921 26.8405 16.2438C25.6545 22.9277 20.0711 27.5707 13.3031 27.4993C7.0223 27.4333 1.5657 22.9077 0.34037 16.7403C0.210228 16.0863 0.112789 15.4249 0 14.7675ZM9.49298 15.1092C9.73458 14.9917 9.90543 14.8896 10.089 14.8222C12.844 13.8091 15.5909 12.7747 18.3599 11.8036C19.5552 11.3845 19.5819 11.4446 19.911 12.6632C20.0077 13.0216 20.1846 13.1891 20.531 12.9649C21.5487 12.3055 22.5658 11.6441 23.5649 10.9567C23.7805 10.8085 23.946 10.5669 24.0888 10.34C24.3238 9.96495 24.199 9.66996 23.7918 9.52781C23.5736 9.45173 23.3273 9.39433 23.1011 9.41368C22.2542 9.48509 21.3972 9.52981 20.5663 9.69666C16.8683 10.4375 13.3525 11.7429 9.89875 13.2298C9.72256 13.3059 9.54303 13.374 9.31879 13.4648C9.30945 13.2679 9.28876 13.1437 9.29944 13.0223C9.56372 10.0804 12.4235 7.91205 15.332 8.45064C15.6337 8.5067 15.9253 8.63284 16.2283 8.66287C16.4118 8.68089 16.6074 8.57677 16.7969 8.52739C16.6948 8.34319 16.6047 8.15098 16.4852 7.97879C16.4405 7.91472 16.3271 7.89737 16.245 7.85933C13.169 6.4558 9.63313 7.50027 7.87923 10.3894C7.37468 11.2203 6.98159 12.132 6.63855 13.045C6.16336 14.309 5.42456 15.3428 4.35073 16.1543C3.91692 16.482 3.47711 16.8164 3.11272 17.2142C2.92051 17.4237 2.73497 17.8355 2.81906 18.0491C2.90449 18.266 3.31427 18.4422 3.60058 18.4742C4.09979 18.5303 4.61568 18.4875 5.1209 18.4402C6.35958 18.3247 7.53352 18.4895 8.66274 19.0482C9.58708 19.506 10.5208 19.9725 11.4972 20.2928C14.7587 21.3633 18.2198 19.785 19.5899 16.6636C19.6407 16.5474 19.7328 16.4233 19.7214 16.3118C19.7014 16.121 19.6146 15.9374 19.5559 15.7512C19.3937 15.8307 19.1949 15.8754 19.0774 15.9982C18.9179 16.165 18.8365 16.4026 18.695 16.5895C17.4356 18.2466 15.7671 19.0061 13.7022 18.6971C11.6133 18.3841 10.2545 17.1401 9.49298 15.1092Z" fill="#ED4E33"/>
</svg>
